<?xml version="1.0" standalone="no"?>
<!DOCTYPE svg PUBLIC "-//W3C//DTD SVG 20010904//EN"
 "http://www.w3.org/TR/2001/REC-SVG-20010904/DTD/svg10.dtd">
<svg version="1.0" xmlns="http://www.w3.org/2000/svg"
 width="500.000000pt" height="500.000000pt" viewBox="0 0 500.000000 500.000000"
 preserveAspectRatio="xMidYMid meet">
<g transform="translate(0.000000,500.000000) scale(0.100000,-0.100000)" stroke="none">
<path d="M2205 4040 c-315 -56 -582 -197 -815 -430 -239 -238 -383 -517 -435
-840 -31 -196 -16 -492 35 -675 20 -70 83 -233 116 -297 58 -114 175 -270 283
-379 228 -227 492 -367 808 -429 196 -38 510 -25 708 30 70 20 233 83 297 116
114 58 270 175 379 283 108 109 225 265 283 379 33 64 96 227 116 297 68 244
68 596 0 840 -20 70 -83 233 -116 297 -58 114 -175 270 -283 378 -240 239
-518 383 -841 435 -133 21 -404 19 -535 -5z m707 -967 l238 -238 0 -510 c0
-491 -1 -511 -20 -543 -11 -18 -34 -41 -52 -52 -32 -19 -52 -20 -568 -20 -516
0 -536 1 -568 20 -18 11 -41 34 -52 52 -19 32 -20 52 -20 728 0 676 1 696 20
728 11 18 34 41 52 52 31 19 51 20 383 20 l350 0 237 -237z"/>
<path d="M2590 2965 l0 -215 217 0 218 0 -215 215 c-118 118 -216 215 -217
215 -2 0 -3 -97 -3 -215z"/>
<path d="M2190 2430 l0 -80 320 0 320 0 0 80 0 80 -320 0 -320 0 0 -80z"/>
<path d="M2190 2110 l0 -80 320 0 320 0 0 80 0 80 -320 0 -320 0 0 -80z"/>
</g>
</svg>
